<svg xmlns="http://www.w3.org/2000/svg" viewBox="0 0 64 64">
  <defs>
    <radialGradient id="ffCore" cx="50%" cy="42%" r="52%">
      <stop offset="0" stop-color="#ffd66e"/>
      <stop offset="1" stop-color="#ff7139"/>
    </radialGradient>
    <linearGradient id="ffFlame" x1="0" x2="1" y1="0" y2="1">
      <stop offset="0" stop-color="#ffb347"/>
      <stop offset="0.45" stop-color="#ff7139"/>
      <stop offset="1" stop-color="#8a34ff"/>
    </linearGradient>
  </defs>
  <circle cx="32" cy="32" r="30" fill="#1f1447"/>
  <circle cx="34" cy="33" r="15" fill="url(#ffCore)"/>
  <path d="M49 15c-7-8-20-9-29 0-7 7-8 20-2 29 6 8 16 11 26 8-11 0-18-7-18-16 0-7 4-12 11-15-2-2-2-5 0-8 2 2 5 3 8 2-1-3 0-6 4-8z" fill="url(#ffFlame)"/>
  <path d="M23 47c5 5 14 6 21 2 4-3 7-7 7-13 0-4-1-7-3-9 2 10-6 18-17 18-3 0-5-1-8-2z" fill="#ff8d2c"/>
</svg>
