<svg xmlns="http://www.w3.org/2000/svg" viewBox="0 0 64 64">
  <path d="M56 32c0-2-.2-4-.7-6H32v12h13c-1 6-6 10-13 10-8 0-15-7-15-16s7-16 15-16c4 0 7 1 10 4l8-8C45 8 39 6 32 6 18 6 6 18 6 32s12 26 26 26c13 0 24-10 24-26z" fill="#4285f4"/>
  <path d="M9 20l10 7c3-6 8-11 13-11 4 0 7 1 10 4l8-8C45 8 39 6 32 6c-10 0-19 6-23 14z" fill="#ea4335"/>
  <path d="M32 58c7 0 13-2 18-7l-9-7c-2 2-5 4-9 4-7 0-12-4-14-10l-10 8c4 8 13 12 24 12z" fill="#34a853"/>
  <path d="M18 38c-1-2-1-4-1-6s0-4 1-6L8 18C7 22 6 27 6 32s1 10 2 14z" fill="#fbbc05"/>
</svg>
