<svg xmlns="http://www.w3.org/2000/svg" viewBox="0 0 64 64">
  <defs>
    <radialGradient id="aiGlow" cx="50%" cy="35%" r="70%">
      <stop offset="0" stop-color="#8ee7ff"/>
      <stop offset="1" stop-color="#4c63ff"/>
    </radialGradient>
    <linearGradient id="aiBody" x1="0" x2="1" y1="0" y2="1">
      <stop offset="0" stop-color="#b9edff"/>
      <stop offset="1" stop-color="#58a4ff"/>
    </linearGradient>
  </defs>
  <circle cx="32" cy="32" r="30" fill="url(#aiGlow)" opacity="0.2"/>
  <path d="M22 20c0-6 4-10 10-10s10 4 10 10v3h2c3 0 6 3 6 6v11c0 7-5 12-12 12h-12c-7 0-12-5-12-12V29c0-3 3-6 6-6h2z" fill="#0d1d48"/>
  <rect x="18" y="24" width="28" height="20" rx="10" fill="#12285d" stroke="url(#aiBody)" stroke-width="2"/>
  <rect x="20" y="46" width="24" height="6" rx="3" fill="#6cbfff"/>
  <circle cx="27" cy="34" r="4" fill="#6ee9ff"/>
  <circle cx="37" cy="34" r="4" fill="#6ee9ff"/>
  <path d="M26 40c2 2 10 2 12 0" fill="none" stroke="#bff8ff" stroke-linecap="round" stroke-width="2.5"/>
  <path d="M24 20v-4M40 20v-4" fill="none" stroke="#b8ecff" stroke-linecap="round" stroke-width="3"/>
</svg>
