<svg xmlns="http://www.w3.org/2000/svg" viewBox="0 0 64 64">
  <defs>
    <linearGradient id="bgGlow" x1="0" x2="1" y1="0" y2="1">
      <stop offset="0" stop-color="#0d2248"/>
      <stop offset="1" stop-color="#09111f"/>
    </linearGradient>
    <linearGradient id="panelBlue" x1="0" x2="1" y1="0" y2="1">
      <stop offset="0" stop-color="#8ed7ff"/>
      <stop offset="1" stop-color="#4478ff"/>
    </linearGradient>
    <linearGradient id="panelSoft" x1="0" x2="0" y1="0" y2="1">
      <stop offset="0" stop-color="#f5f9ff"/>
      <stop offset="1" stop-color="#d5e6ff"/>
    </linearGradient>
  </defs>
  <rect x="4" y="4" width="56" height="56" rx="18" fill="url(#bgGlow)"/>
  <path d="M13 25 32 13l19 12-3 5-16-10-16 10z" fill="url(#panelBlue)"/>
  <path d="M16 28h32v20a5 5 0 0 1-5 5H21a5 5 0 0 1-5-5z" fill="url(#panelSoft)"/>
  <path d="M28 53V40a4 4 0 0 1 8 0v13" fill="#5a74ff"/>
  <rect x="20" y="33" width="6" height="8" rx="2" fill="#7caeff"/>
  <rect x="38" y="33" width="6" height="8" rx="2" fill="#7caeff"/>
  <rect x="23" y="18" width="18" height="8" rx="4" fill="rgba(255,255,255,0.18)"/>
  <rect x="21" y="8" width="22" height="10" rx="5" fill="rgba(73,162,255,0.24)" stroke="rgba(142,215,255,0.6)"/>
  <path d="M26 13h3m2 0h7" stroke="#f5f9ff" stroke-width="2" stroke-linecap="round"/>
  <rect x="40" y="12" width="12" height="18" rx="4" fill="rgba(255,255,255,0.08)" stroke="rgba(142,215,255,0.42)"/>
  <rect x="43" y="16" width="6" height="2.5" rx="1.25" fill="#8ed7ff"/>
  <rect x="43" y="21" width="6" height="2.5" rx="1.25" fill="#5de2b4"/>
  <rect x="43" y="26" width="4" height="2.5" rx="1.25" fill="#f7cf6f"/>
</svg>
